<svg xmlns="http://www.w3.org/2000/svg" width="168.999" height="168.999" viewBox="0 0 168.999 168.999">
  <path id="Subtraction_8" data-name="Subtraction 8" d="M-2335.964,2345a82.953,82.953,0,0,1-32.615-6.629,84.3,84.3,0,0,1-14.265-7.768,85.146,85.146,0,0,1-12.444-10.278,85.259,85.259,0,0,1-10.278-12.444c-.34-.5-.678-1.013-1-1.518,6.963-12.861,13.9-25.957,20.6-38.622l.219-.413c2.445-4.618,4.973-9.393,7.464-14.083,1.33,5.954,2.548,11.757,3.622,17.248a6.628,6.628,0,0,0,6.923,5.623,9.83,9.83,0,0,0,7.667-3.715l.45-.6c7.319-9.781,14.887-19.9,22.958-29.409a7.989,7.989,0,0,0,1.205-8.823,8.422,8.422,0,0,0-7.263-5.116,6.815,6.815,0,0,0-5.231,2.65c-4.52,5.328-9.224,11.207-14.8,18.5-1.454-6.535-3.064-13.357-4.924-20.856-.979-3.95-4.767-5.75-7.872-5.75a7.444,7.444,0,0,0-6.718,3.844c-5.868,10.907-11.761,22.036-17.459,32.8l-.006.012-.041.078c-5.044,9.528-10.261,19.38-15.442,29.042a83.066,83.066,0,0,1-4.744-27.769,82.946,82.946,0,0,1,6.629-32.615,84.219,84.219,0,0,1,7.768-14.265,85.2,85.2,0,0,1,10.278-12.444,85.2,85.2,0,0,1,12.444-10.278,84.333,84.333,0,0,1,14.265-7.769,82.97,82.97,0,0,1,32.615-6.627,83.465,83.465,0,0,1,23.339,3.318,83.7,83.7,0,0,1,20.846,9.326,84.853,84.853,0,0,1,30.427,32.884,8.42,8.42,0,0,0-3.134,2.619q-1.627,2.181-3.25,4.364l-.542.728-.077.1c-5.53,7.43-11.249,15.112-17.01,22.613-1.162-5.139-2.122-9.276-3.021-13.018a7.386,7.386,0,0,0-7.474-5.691,8.342,8.342,0,0,0-7.117,3.785c-3.331,5.234-5.952,9.262-8.5,13.062-.459-3.5-.838-6.5-1.16-9.193-.535-4.48-4.063-7.858-8.208-7.858a8,8,0,0,0-6.666,3.83c-13.012,19.24-24.666,37.625-35.628,56.2a7.228,7.228,0,0,0-.213,7.513,8.967,8.967,0,0,0,7.569,4.386,7.305,7.305,0,0,0,6.43-3.841c7.4-12.541,15.358-25.373,23.651-38.14l.006.034.047.346c.317,2.347.676,5.006,1.021,7.641.6,4.571,3.861,7.763,7.931,7.763a8.786,8.786,0,0,0,6.945-3.733c3.265-4.246,6.564-8.816,10.086-13.974l.314,1.4.169.756.169.756c.628,2.815,1.222,5.473,1.834,8.184.834,3.7,4.782,5.913,8.117,5.913a6.534,6.534,0,0,0,5.226-2.39c9.545-11.891,18.363-23.657,28.9-37.8a83.461,83.461,0,0,1,2.972,22.109,82.962,82.962,0,0,1-6.628,32.616,84.27,84.27,0,0,1-7.768,14.265,85.2,85.2,0,0,1-10.279,12.444,85.249,85.249,0,0,1-12.444,10.278,84.3,84.3,0,0,1-14.265,7.768A82.952,82.952,0,0,1-2335.964,2345Z" transform="translate(2420.463 -2176.5)" fill="#fe5b3c" stroke="rgba(0,0,0,0)" stroke-miterlimit="10" stroke-width="1"/>
</svg>
